<?xml version="1.0" encoding="UTF-8" standalone="no"?>
<svg
   width="244"
   height="131"
   viewBox="0 0 244 131"
   fill="none"
   version="1.1"
   id="svg40"
   sodipodi:docname="41dc51708111cd1791595b245926f578.svg"
   xmlns:inkscape="http://www.inkscape.org/namespaces/inkscape"
   xmlns:sodipodi="http://sodipodi.sourceforge.net/DTD/sodipodi-0.dtd"
   xmlns="http://www.w3.org/2000/svg"
   xmlns:svg="http://www.w3.org/2000/svg">
  <sodipodi:namedview
     id="namedview42"
     pagecolor="#ffffff"
     bordercolor="#666666"
     borderopacity="1.0"
     inkscape:pageshadow="2"
     inkscape:pageopacity="0.0"
     inkscape:pagecheckerboard="0" />
  <g
     id="logo"
     transform="translate(-0.99560499)">
    <g
       id="Rectangle 285"
       filter="url(#filter0_d_2_588)">
      <rect
         x="20.9956"
         y="10"
         width="204"
         height="91"
         rx="12"
         fill="#ffffff"
         id="rect2" />
    </g>
    <g
       id="Union">
      <path
         d="m 132.621,43.1023 v 2.7667 c 0.007,0.1855 0.087,0.3607 0.223,0.4879 0.135,0.1272 0.315,0.1963 0.5,0.1923 h 6.427 l -7.405,10.596 c -0.468,0.6811 -0.468,1.4467 -0.468,1.8723 v 2.8083 c 0,0.4255 0.468,0.851 0.894,0.6383 4.17,-2.2555 9.234,-2.0427 13.021,-0.0426 0.468,0.255 0.893,-0.2128 0.893,-0.6383 V 58.847 c -0.042,-0.383 -0.17,-0.8086 -0.638,-1.0639 -2.127,-1.1912 -4.638,-1.5315 -7.021,-1.4889 l 6.383,-9.1066 c 0.596,-0.8515 0.936,-1.3618 0.936,-1.7448 v -2.3405 c -0.007,-0.1857 -0.087,-0.361 -0.223,-0.4883 -0.135,-0.1274 -0.315,-0.1965 -0.501,-0.1926 h -12.34 c -0.091,-0.0048 -0.182,0.0095 -0.266,0.042 -0.085,0.0325 -0.162,0.0825 -0.226,0.1467 -0.065,0.0642 -0.115,0.1412 -0.147,0.226 -0.033,0.0848 -0.047,0.1755 -0.042,0.2662 z"
         fill="#c4c4c4"
         id="path5" />
      <path
         d="m 83.8965,63.0176 h 3.7448 c 0.1838,0.0065 0.3636,-0.0549 0.5049,-0.1727 0.1414,-0.1178 0.2343,-0.2835 0.261,-0.4655 V 52.1663 c 0,-0.0667 0,-0.1341 -1e-4,-0.2021 -0.0025,-2.2318 -0.0056,-5.1172 2.596,-5.1172 2.3754,0 2.3361,2.5873 2.3047,4.6559 -0.0035,0.2289 -0.0069,0.4514 -0.0069,0.6634 v 10.2131 c 0,0.3405 0.298,0.6383 0.6809,0.6809 h 3.7448 c 0.1857,0.0039 0.3656,-0.0653 0.5008,-0.1926 0.1353,-0.1274 0.2152,-0.3027 0.2225,-0.4883 V 52.1663 c 0,-0.0975 -3e-4,-0.199 -6e-4,-0.3036 -0.0036,-1.0828 -0.0082,-2.5061 0.341,-3.3985 0.1815,-0.4538 0.4917,-0.8447 0.8924,-1.1244 0.4003,-0.2798 0.8743,-0.4363 1.3633,-0.4502 1.106,0 1.915,0.383 2.213,1.6596 0.133,0.6011 0.109,1.9884 0.093,2.9485 -0.004,0.2633 -0.008,0.4946 -0.008,0.6686 v 10.2131 c 0,0.3405 0.298,0.6383 0.681,0.6809 h 3.702 c 0.186,0.0039 0.366,-0.0653 0.501,-0.1926 0.135,-0.1274 0.215,-0.3027 0.223,-0.4883 V 50.2089 c 0,-0.3101 0.005,-0.6258 0.011,-0.944 0.032,-1.8213 0.066,-3.7221 -0.948,-5.0986 -1.064,-1.4895 -2.766,-2.1278 -4.34,-2.1278 -2.213,0 -4.2987,1.149 -5.1921,3.5745 -1.0214,-2.4255 -2.5107,-3.5745 -4.8512,-3.5745 -2.2979,0 -4.0429,1.149 -4.9363,3.5745 h -0.0851 v -2.5107 c -0.0137,-0.172 -0.0911,-0.3328 -0.217,-0.4508 -0.1259,-0.118 -0.2913,-0.1849 -0.4639,-0.1875 H 83.939 c -0.1857,-0.0039 -0.3656,0.0653 -0.5008,0.1926 -0.1353,0.1273 -0.2152,0.3027 -0.2226,0.4883 v 19.2344 c 0.0278,0.1663 0.1094,0.319 0.2325,0.4343 0.123,0.1154 0.2806,0.187 0.4484,0.204 z"
         fill="#c4c4c4"
         id="path7" />
      <path
         fill-rule="evenodd"
         clip-rule="evenodd"
         d="m 165.6,52.8898 c 0,-6.0852 -3.021,-10.8513 -8.596,-10.8513 -5.447,0 -8.468,4.6809 -8.425,10.681 0,5.9576 2.978,10.7236 8.425,10.7236 5.277,0 8.596,-4.6808 8.596,-10.5533 z m -11.532,-0.766 c 0,-2.3404 0.17,-6.1278 2.936,-6.1278 1.192,0 2.043,0.5105 2.468,1.8723 0.469,1.5321 0.554,3.4894 0.554,5.1066 0,2.4681 -0.17,6.5108 -3.064,6.5108 -2.896,0 -2.894,-4.8829 -2.894,-7.2628 z"
         fill="#c4c4c4"
         id="path9" />
      <path
         d="m 169.047,63.0176 h 3.745 c 0.188,-0.0018 0.37,-0.0713 0.51,-0.1965 0.141,-0.1252 0.232,-0.2971 0.256,-0.4841 V 51.9533 c 0,-1.3192 0.085,-2.4685 0.595,-3.6597 0.426,-0.9363 1.277,-1.5319 2.171,-1.5319 2.387,0 2.363,2.5915 2.343,4.6629 -0.001,0.181 -0.003,0.358 -0.003,0.529 v 10.468 c 0.043,0.2978 0.341,0.553 0.681,0.5956 h 3.745 c 0.173,0.0077 0.342,-0.049 0.476,-0.1589 0.134,-0.11 0.222,-0.2656 0.247,-0.4367 V 50.2937 c 0,-1.8724 0,-4.4682 -0.978,-6.0001 -1.064,-1.6599 -2.724,-2.2554 -4.383,-2.2554 -2.596,0 -4.043,1.234 -5.107,3.8724 h -0.085 v -2.9362 c -0.038,-0.1538 -0.125,-0.291 -0.248,-0.3908 -0.123,-0.0998 -0.275,-0.1569 -0.433,-0.1625 h -3.489 c -0.178,0.0014 -0.348,0.0667 -0.481,0.184 -0.133,0.1173 -0.219,0.2786 -0.243,0.4543 v 19.2773 c 0,0.3405 0.298,0.6383 0.681,0.6809 z"
         fill="#c4c4c4"
         id="path11" />
      <path
         fill-rule="evenodd"
         clip-rule="evenodd"
         d="m 126.145,63.1614 c 0.161,-0.0153 0.312,-0.0804 0.433,-0.1863 l 0.002,-10e-5 c 0.272,-0.2266 0.619,-0.5229 0.989,-0.8395 0.674,-0.5751 1.426,-1.217 1.947,-1.6287 0.298,-0.2127 0.255,-0.6383 0,-0.9787 -0.082,-0.1179 -0.165,-0.2327 -0.247,-0.3465 -0.598,-0.8309 -1.157,-1.6083 -1.157,-3.1429 v -5.8299 c 0,-0.1948 0.001,-0.3886 0.002,-0.5811 0.012,-2.2456 0.024,-4.3193 -1.662,-5.8871 -1.447,-1.4043 -3.83,-1.8723 -5.659,-1.8723 -3.575,0 -7.533,1.3192 -8.384,5.7448 -0.085,0.4682 0.256,0.6809 0.554,0.766 l 3.617,0.383 c 0.34,0 0.553,-0.3405 0.638,-0.6809 0.298,-1.5321 1.575,-2.2554 3.021,-2.2554 0.766,0 1.617,0.2977 2.085,0.9786 0.489,0.6772 0.479,1.5875 0.47,2.4068 -10e-4,0.1074 -0.002,0.2132 -0.002,0.3167 v 0.468 c -0.353,0.0416 -0.724,0.0808 -1.106,0.1213 -1.97,0.2086 -4.247,0.4498 -5.958,1.1979 -2.341,1.0215 -4.001,3.064 -4.001,6.1279 0,3.8724 2.469,5.8299 5.618,5.8299 2.638,0 4.127,-0.639 6.17,-2.7235 0.099,0.1429 0.19,0.2759 0.275,0.4019 0.501,0.7369 0.841,1.2367 1.895,2.1089 0.139,0.081 0.3,0.1164 0.46,0.1012 z m -3.354,-9.1069 c 0,-0.0756 0,-0.1517 0,-0.2285 v -0.8079 c -2.723,0 -5.574,0.5958 -5.574,3.7873 0,1.6172 0.851,2.7235 2.297,2.7235 1.064,0 2.001,-0.6383 2.596,-1.7022 0.685,-1.2498 0.683,-2.4226 0.681,-3.7722 z"
         fill="#c4c4c4"
         id="path13" />
      <path
         fill-rule="evenodd"
         clip-rule="evenodd"
         d="m 76.9527,63.1614 c 0.1603,-0.0153 0.3117,-0.0804 0.433,-0.1863 l 0.0015,-10e-5 c 0.2719,-0.2266 0.6188,-0.5229 0.9895,-0.8395 0.6735,-0.5751 1.4251,-1.217 1.9466,-1.6287 0.2978,-0.2127 0.2554,-0.6383 0,-0.9787 -0.082,-0.1179 -0.1646,-0.2327 -0.2466,-0.3465 -0.598,-0.8309 -1.1576,-1.6083 -1.1576,-3.1429 v -5.8299 c 0,-0.1948 0.001,-0.3886 0.0021,-0.5811 0.0123,-2.2456 0.0237,-4.3193 -1.6617,-5.8871 -1.4469,-1.4043 -3.8298,-1.8723 -5.6597,-1.8723 -3.5744,0 -7.532,1.3192 -8.3831,5.7448 -0.085,0.4682 0.2555,0.6809 0.5533,0.766 l 3.6171,0.383 c 0.3405,0 0.5532,-0.3405 0.6383,-0.6809 0.2979,-1.5321 1.5745,-2.2554 3.0213,-2.2554 0.7654,0 1.6165,0.2977 2.0846,0.9786 0.489,0.6772 0.4791,1.5875 0.4703,2.4068 -0.0012,0.1074 -0.0023,0.2132 -0.0023,0.3167 v 0.468 c -0.3528,0.0416 -0.7237,0.0808 -1.1061,0.1213 -1.9697,0.2086 -4.2474,0.4498 -5.9578,1.1979 -2.3411,1.0215 -4.0007,3.064 -4.0007,6.1279 0,3.8724 2.4681,5.8299 5.6172,5.8299 2.6382,0 4.1277,-0.639 6.1702,-2.7235 0.0995,0.1429 0.1899,0.2759 0.2756,0.4019 0.5011,0.7369 0.8408,1.2367 1.8947,2.1089 0.1391,0.081 0.3001,0.1164 0.4603,0.1012 z m -3.3115,-9.1068 c -1e-4,-0.0756 -2e-4,-0.1518 -2e-4,-0.2286 v -0.8079 c -2.7235,0 -5.5746,0.5958 -5.5746,3.7873 0,1.6172 0.851,2.7235 2.2979,2.7235 1.0639,0 2.0002,-0.6383 2.5958,-1.7022 0.6851,-1.2498 0.6832,-2.4226 0.6811,-3.7721 z"
         fill="#c4c4c4"
         id="path15" />
      <path
         d="m 140.706,67.0602 c -0.894,-1.1489 -5.958,-0.5532 -8.213,-0.2553 -0.681,0.0851 -0.809,-0.5106 -0.171,-0.9362 4.043,-2.8511 10.639,-2.0001 11.405,-1.0639 0.766,0.9362 -0.213,7.5742 -4.001,10.7236 -0.595,0.468 -1.149,0.2127 -0.893,-0.4256 l 0.044,-0.1113 c 0.872,-2.1768 2.707,-6.7605 1.829,-7.9313 z"
         fill="#c4c4c4"
         id="path17" />
      <path
         d="m 137.77,70.4223 c -7.022,5.1918 -17.235,7.9576 -26.044,7.9576 -12.3402,0 -23.4042,-4.5533 -31.8299,-12.1278 -0.6383,-0.5956 -0.0851,-1.4043 0.7233,-0.9362 9.0641,5.2766 20.2556,8.4257 31.8306,8.4257 7.787,0 16.383,-1.617 24.298,-4.9789 1.191,-0.4681 2.171,0.8085 1.022,1.6596 z"
         fill="#c4c4c4"
         id="path19" />
    </g>
  </g>
  <defs
     id="defs38">
    <filter
       id="filter0_d_2_588"
       x="0.99560499"
       y="0"
       width="244"
       height="131"
       filterUnits="userSpaceOnUse"
       color-interpolation-filters="sRGB">
      <feFlood
         flood-opacity="0"
         result="BackgroundImageFix"
         id="feFlood23" />
      <feColorMatrix
         in="SourceAlpha"
         type="matrix"
         values="0 0 0 0 0 0 0 0 0 0 0 0 0 0 0 0 0 0 127 0"
         result="hardAlpha"
         id="feColorMatrix25" />
      <feOffset
         dy="10"
         id="feOffset27" />
      <feGaussianBlur
         stdDeviation="10"
         id="feGaussianBlur29" />
      <feColorMatrix
         type="matrix"
         values="0 0 0 0 0 0 0 0 0 0 0 0 0 0 0 0 0 0 0.1 0"
         id="feColorMatrix31" />
      <feBlend
         mode="normal"
         in2="BackgroundImageFix"
         result="effect1_dropShadow_2_588"
         id="feBlend33" />
      <feBlend
         mode="normal"
         in="SourceGraphic"
         in2="effect1_dropShadow_2_588"
         result="shape"
         id="feBlend35" />
    </filter>
  </defs>
</svg>
